<?xml version="1.0" standalone="no"?>
<!DOCTYPE svg PUBLIC "-//W3C//DTD SVG 20010904//EN"
 "http://www.w3.org/TR/2001/REC-SVG-20010904/DTD/svg10.dtd">
<svg version="1.0" xmlns="http://www.w3.org/2000/svg"
 width="1325.000000pt" height="1325.000000pt" viewBox="0 0 1325.000000 1325.000000"
 preserveAspectRatio="xMidYMid meet">
<metadata>
Created by potrace 1.14, written by Peter Selinger 2001-2017
</metadata>
<g transform="translate(0.000000,1325.000000) scale(0.100000,-0.100000)"
fill="#000000" stroke="none">
<path d="M6388 13225 c-2 -2 -64 -6 -138 -9 -74 -4 -151 -8 -170 -10 -19 -3
-66 -7 -105 -11 -38 -3 -81 -8 -95 -10 -14 -2 -52 -6 -85 -10 -33 -3 -85 -10
-115 -15 -30 -5 -71 -12 -90 -14 -67 -9 -116 -18 -285 -53 -200 -40 -163 -32
-355 -81 -85 -23 -207 -57 -270 -77 -63 -19 -122 -38 -130 -40 -90 -25 -485
-178 -598 -231 -41 -19 -76 -34 -78 -34 -9 0 -341 -168 -434 -220 -114 -63
-275 -157 -310 -181 -14 -9 -86 -56 -160 -104 -114 -74 -182 -122 -235 -163
-5 -4 -35 -25 -65 -47 -278 -200 -678 -564 -950 -864 -247 -273 -507 -615
-687 -902 -43 -69 -83 -134 -90 -145 -11 -17 -53 -89 -120 -209 -48 -84 -202
-395 -252 -510 -142 -319 -315 -822 -366 -1060 -2 -11 -13 -57 -24 -103 -12
-45 -23 -95 -26 -110 -8 -47 -14 -73 -19 -90 -3 -9 -7 -35 -11 -57 -3 -22 -12
-71 -19 -110 -8 -38 -17 -92 -21 -120 -3 -27 -8 -57 -10 -65 -4 -16 -10 -66
-20 -165 -4 -33 -8 -71 -10 -84 -3 -13 -7 -61 -11 -105 -3 -45 -8 -89 -10
-100 -7 -38 -17 -327 -17 -491 0 -153 6 -312 18 -465 10 -139 15 -197 19 -215
2 -11 7 -51 11 -88 3 -37 8 -76 10 -85 1 -9 6 -39 9 -67 6 -45 18 -120 31
-192 3 -16 8 -44 11 -63 8 -54 11 -69 29 -150 9 -41 18 -84 20 -95 23 -112
103 -407 150 -555 167 -518 404 -1031 688 -1490 307 -495 708 -978 1142 -1375
54 -49 106 -97 115 -105 147 -135 621 -500 649 -500 5 0 11 -4 13 -9 3 -10
316 -208 408 -258 30 -17 93 -52 140 -78 82 -46 464 -235 475 -235 3 0 27 -10
53 -21 134 -60 235 -100 407 -161 192 -68 487 -158 567 -173 15 -3 38 -9 52
-15 15 -5 26 -8 26 -5 0 2 18 -2 39 -10 22 -7 54 -16 73 -19 18 -3 99 -19 180
-35 81 -17 169 -33 195 -37 26 -3 50 -8 53 -9 3 -2 37 -7 75 -10 39 -4 73 -9
76 -10 3 -2 55 -9 115 -15 60 -6 123 -13 139 -15 35 -5 129 -12 270 -21 199
-13 695 -7 875 10 19 2 69 7 110 10 41 4 89 9 105 11 17 2 53 7 80 10 62 6
113 13 190 25 33 5 77 12 99 16 21 3 48 8 60 10 11 2 48 9 81 15 33 6 71 13
84 15 13 3 92 21 175 40 83 19 158 37 166 39 8 1 42 11 75 20 981 275 1855
742 2597 1387 139 120 420 394 538 523 109 120 189 211 230 265 24 30 48 60
54 65 6 6 25 28 42 50 359 466 639 928 843 1395 35 80 72 163 81 185 87 197
248 690 305 932 7 28 54 239 60 270 13 61 64 361 70 413 3 30 8 66 10 80 6 40
23 203 29 280 21 251 28 804 12 965 -4 44 -9 96 -11 114 -10 108 -17 188 -20
201 -1 8 -6 42 -9 75 -4 33 -9 67 -11 75 -2 8 -6 38 -10 65 -7 57 -15 107 -21
139 -2 11 -6 33 -9 47 -4 22 -17 90 -41 209 -14 72 -57 248 -65 270 -5 14 -12
37 -14 52 -8 44 -91 315 -140 458 -119 343 -313 775 -474 1054 -28 49 -51 90
-51 92 0 8 -135 221 -243 384 -99 149 -357 493 -397 530 -3 3 -30 34 -60 70
-148 177 -431 467 -615 630 -103 91 -117 103 -225 191 -273 223 -507 387 -830
582 -150 90 -481 261 -670 346 -259 116 -707 274 -980 346 -57 16 -339 81
-380 88 -14 3 -63 12 -110 21 -47 9 -99 18 -115 20 -17 3 -46 7 -65 11 -62 11
-96 16 -210 30 -115 15 -304 33 -425 41 -91 6 -642 14 -647 9z"/>
</g>
</svg>
